<svg width="0" height="0" class="hidden">
  <symbol xmlns="http://www.w3.org/2000/svg" viewBox="0 0 36 23" id="i-arrow">
    <path fill-rule="evenodd" clip-rule="evenodd" d="M0.5 11.5C0.5 11.1685 0.631696 10.8505 0.866116 10.6161C1.10054 10.3817 1.41848 10.25 1.75 10.25H31.2325L23.365 2.38499C23.1303 2.15028 22.9984 1.83193 22.9984 1.49999C22.9984 1.16805 23.1303 0.849708 23.365 0.614992C23.5997 0.380275 23.9181 0.248413 24.25 0.248413C24.5819 0.248413 24.9003 0.380275 25.135 0.614992L35.135 10.615C35.2514 10.7311 35.3438 10.869 35.4068 11.0209C35.4698 11.1728 35.5022 11.3356 35.5022 11.5C35.5022 11.6644 35.4698 11.8272 35.4068 11.9791C35.3438 12.1309 35.2514 12.2689 35.135 12.385L25.135 22.385C24.9003 22.6197 24.5819 22.7516 24.25 22.7516C23.9181 22.7516 23.5997 22.6197 23.365 22.385C23.1303 22.1503 22.9984 21.8319 22.9984 21.5C22.9984 21.1681 23.1303 20.8497 23.365 20.615L31.2325 12.75H1.75C1.41848 12.75 1.10054 12.6183 0.866116 12.3839C0.631696 12.1495 0.5 11.8315 0.5 11.5Z" fill="white"></path>
  </symbol>
  <symbol xmlns="http://www.w3.org/2000/svg" viewBox="0 0 23 24" id="i-google">
    <path fill-rule="evenodd" clip-rule="evenodd" d="M22.54 12.2614C22.54 11.4459 22.4668 10.6618 22.3309 9.90909H11.5V14.3575H17.6891C17.4225 15.795 16.6123 17.013 15.3943 17.8284V20.7139H19.1109C21.2855 18.7118 22.54 15.7636 22.54 12.2614Z" fill="#4285F4"></path>
    <path fill-rule="evenodd" clip-rule="evenodd" d="M11.5 23.4998C14.605 23.4998 17.2081 22.4701 19.1109 20.7137L15.3943 17.8282C14.3645 18.5182 13.0472 18.926 11.5 18.926C8.50474 18.926 5.96951 16.903 5.06519 14.1848H1.22314V17.1644C3.11542 20.9228 7.00451 23.4998 11.5 23.4998Z" fill="#34A853"></path>
    <path fill-rule="evenodd" clip-rule="evenodd" d="M5.06523 14.1851C4.83523 13.4951 4.70455 12.758 4.70455 12.0001C4.70455 11.2421 4.83523 10.5051 5.06523 9.81506V6.83552H1.22318C0.444318 8.38802 0 10.1444 0 12.0001C0 13.8557 0.444318 15.6121 1.22318 17.1646L5.06523 14.1851Z" fill="#FBBC05"></path>
    <path fill-rule="evenodd" clip-rule="evenodd" d="M11.5 5.07386C13.1884 5.07386 14.7043 5.65409 15.8961 6.79364L19.1945 3.49523C17.2029 1.63955 14.5997 0.5 11.5 0.5C7.00451 0.5 3.11542 3.07705 1.22314 6.83545L5.06519 9.815C5.96951 7.09682 8.50474 5.07386 11.5 5.07386Z" fill="#EA4335"></path>
  </symbol>
  <symbol xmlns="http://www.w3.org/2000/svg" viewBox="0 0 32 32" id="i-inst">
    <path fill-rule="evenodd" clip-rule="evenodd" d="M9.46778 0.494892C11.1126 0.419171 11.6371 0.402344 15.827 0.402344C20.0169 0.402344 20.5413 0.420573 22.1848 0.494892C23.8282 0.569211 24.95 0.831432 25.9316 1.21144C26.9594 1.59986 27.8919 2.20704 28.6632 2.9923C29.4484 3.76213 30.0542 4.69322 30.4412 5.72247C30.8226 6.70405 31.0834 7.82584 31.1592 9.46647C31.2349 11.1141 31.2517 11.6386 31.2517 15.8271C31.2517 20.017 31.2335 20.5414 31.1592 22.1863C31.0848 23.8269 30.8226 24.9487 30.4412 25.9303C30.0542 26.9596 29.4474 27.8923 28.6632 28.6632C27.8919 29.4485 26.9594 30.0543 25.9316 30.4413C24.95 30.8227 23.8282 31.0835 22.1876 31.1593C20.5413 31.235 20.0169 31.2518 15.827 31.2518C11.6371 31.2518 11.1126 31.2336 9.46778 31.1593C7.82716 31.0849 6.70536 30.8227 5.72378 30.4413C4.69442 30.0542 3.76179 29.4475 2.9908 28.6632C2.20608 27.893 1.59881 26.9608 1.21135 25.9317C0.83134 24.9501 0.570522 23.8283 0.494801 22.1877C0.419079 20.54 0.402252 20.0156 0.402252 15.8271C0.402252 11.6372 0.420481 11.1127 0.494801 9.46928C0.56912 7.82584 0.83134 6.70405 1.21135 5.72247C1.59938 4.69334 2.20711 3.76117 2.9922 2.99089C3.76209 2.20634 4.69379 1.59908 5.72238 1.21144C6.70395 0.831432 7.82575 0.570613 9.46638 0.494892H9.46778ZM22.06 3.27134C20.4334 3.19702 19.9454 3.1816 15.827 3.1816C11.7086 3.1816 11.2206 3.19702 9.59399 3.27134C8.08938 3.34005 7.27327 3.59106 6.72919 3.80279C6.00984 4.08324 5.49522 4.41558 4.95535 4.95544C4.44359 5.45331 4.04975 6.05941 3.8027 6.72929C3.59096 7.27336 3.33996 8.08947 3.27125 9.59408C3.19693 11.2207 3.18151 11.7087 3.18151 15.8271C3.18151 19.9455 3.19693 20.4335 3.27125 22.0601C3.33996 23.5647 3.59096 24.3808 3.8027 24.9249C4.0495 25.5937 4.44353 26.2009 4.95535 26.6987C5.45315 27.2105 6.06032 27.6046 6.72919 27.8513C7.27327 28.0631 8.08938 28.3141 9.59399 28.3828C11.2206 28.4571 11.7072 28.4725 15.827 28.4725C19.9468 28.4725 20.4334 28.4571 22.06 28.3828C23.5646 28.3141 24.3807 28.0631 24.9248 27.8513C25.6441 27.5709 26.1587 27.2386 26.6986 26.6987C27.2104 26.2009 27.6045 25.5937 27.8513 24.9249C28.063 24.3808 28.314 23.5647 28.3827 22.0601C28.457 20.4335 28.4725 19.9455 28.4725 15.8271C28.4725 11.7087 28.457 11.2207 28.3827 9.59408C28.314 8.08947 28.063 7.27336 27.8513 6.72929C27.5708 6.00993 27.2385 5.49531 26.6986 4.95544C26.2007 4.44372 25.5946 4.04989 24.9248 3.80279C24.3807 3.59106 23.5646 3.34005 22.06 3.27134ZM13.8568 20.5821C14.9571 21.0401 16.1823 21.1019 17.3231 20.757C18.4639 20.412 19.4495 19.6817 20.1117 18.6908C20.7739 17.6999 21.0715 16.5098 20.9537 15.3238C20.8359 14.1378 20.31 13.0295 19.4658 12.1882C18.9277 11.6504 18.277 11.2387 17.5606 10.9825C16.8442 10.7264 16.08 10.6322 15.3229 10.7069C14.5657 10.7816 13.8346 11.0232 13.1821 11.4144C12.5295 11.8055 11.9718 12.3365 11.5491 12.9691C11.1264 13.6016 10.8493 14.3201 10.7375 15.0726C10.6258 15.8252 10.6823 16.5931 10.903 17.3212C11.1237 18.0493 11.5031 18.7194 12.0139 19.2832C12.5246 19.8471 13.154 20.2907 13.8568 20.5821ZM10.2208 10.2209C10.957 9.48467 11.831 8.90067 12.7929 8.50223C13.7548 8.1038 14.7858 7.89872 15.827 7.89872C16.8681 7.89872 17.8991 8.1038 18.861 8.50223C19.8229 8.90067 20.697 9.48467 21.4332 10.2209C22.1694 10.9571 22.7534 11.8311 23.1518 12.793C23.5503 13.7549 23.7553 14.7859 23.7553 15.8271C23.7553 16.8682 23.5503 17.8992 23.1518 18.8611C22.7534 19.823 22.1694 20.697 21.4332 21.4333C19.9463 22.9201 17.9297 23.7554 15.827 23.7554C13.7243 23.7554 11.7076 22.9201 10.2208 21.4333C8.73394 19.9464 7.89863 17.9298 7.89863 15.8271C7.89863 13.7243 8.73394 11.7077 10.2208 10.2209ZM25.5137 9.07945C25.6961 8.90735 25.8422 8.7004 25.9432 8.47084C26.0442 8.24128 26.0982 7.99379 26.1018 7.74301C26.1055 7.49224 26.0588 7.24328 25.9645 7.01087C25.8702 6.77847 25.7303 6.56734 25.5529 6.39C25.3756 6.21265 25.1644 6.07269 24.932 5.97841C24.6996 5.88412 24.4507 5.83742 24.1999 5.84108C23.9491 5.84473 23.7016 5.89867 23.4721 5.99969C23.2425 6.10071 23.0356 6.24677 22.8635 6.4292C22.5288 6.78402 22.3455 7.2553 22.3526 7.74301C22.3597 8.23073 22.5566 8.69647 22.9015 9.04137C23.2464 9.38628 23.7122 9.58318 24.1999 9.59029C24.6876 9.5974 25.1589 9.41416 25.5137 9.07945Z"></path>
  </symbol>
  <symbol xmlns="http://www.w3.org/2000/svg" viewBox="0 0 30 30" id="i-logo">
    <path d="M2.59123 7.8325C2.83304 7.525 3.15151 7.10875 3.40654 6.81125C4.17032 5.99125 4.26942 5.88375 4.96449 5.2775C5.17063 5.1175 5.41509 4.925 5.65426 4.74375C3.89018 6.15625 3.66554 7.72 5.28427 8.68625C5.28163 8.68625 5.28163 8.68625 5.28163 8.68875C7.54521 9.97875 12.5058 9.7 16.4198 8.0475C20.211 6.4475 21.6103 4.15875 19.7392 2.79875C18.0967 2.5075 16.1384 2.47375 14.0664 2.73625L13.851 2.4L14.0294 1.8425C15.2477 1.73875 16.4053 1.76375 17.4043 1.925C17.6461 1.96375 17.9646 2.03 18.2024 2.0775C18.6623 2.18375 18.912 2.2475 19.212 2.33875C19.5185 2.425 19.7802 2.51125 20.2361 2.67125C20.6827 2.8375 20.8756 2.9125 21.2337 3.08125C21.6348 3.25433 22.0244 3.4501 22.4005 3.6675C25.3817 5.44125 23.5277 8.6775 18.2672 10.895C13.0211 13.105 6.33611 13.4525 3.34047 11.7C3.33915 11.6975 3.33518 11.695 3.32725 11.6925H3.33254C1.69663 10.7125 1.52484 9.29 2.59123 7.8325ZM16.2401 20.2325L16.1978 18.24L14.7007 16.665C9.75461 17.725 4.89313 17.4975 2.18952 15.9913C2.18027 15.9812 2.1578 15.9713 2.14855 15.9613C0.618354 15.07 0.24043 13.92 0.355393 12.67C-0.00271022 14.4987 -0.0317813 15.1587 0.0197538 16.7237C0.0831817 17.7037 0.681782 18.6075 1.88559 19.32L1.89484 19.33C4.77684 21.025 10.7814 21.3925 16.2401 20.2325ZM22.4838 22.5138C15.5028 25.1625 6.76557 25.3188 2.97047 22.8675C3.38032 23.815 3.93798 24.6989 4.62488 25.49C8.10813 27.74 16.1278 27.5963 22.5327 25.165C26.2815 23.7437 28.6469 21.8525 29.2679 20.08L29.4424 19.5462C29.856 18.1938 29.9339 17.0675 30 16.065C29.9247 18.2413 27.2145 20.7162 22.4838 22.5138ZM7.07346 27.615C7.29282 27.8125 7.98259 28.6138 11.4777 29.4988C12.4225 29.6963 14.8011 30.33 19.1948 29.4088L19.2212 29.03L18.8737 28.515C14.7971 29.4275 10.2686 29.1225 7.07346 27.615ZM17.1611 11.8538L20.873 14.515C20.873 14.515 21.6672 15.0562 20.9179 15.4362C20.1713 15.8125 18.2539 16.7337 18.2539 16.7337L16.3604 16.065L15.4103 16.465L17.0858 17.8412L17.099 19.9825L18.0835 19.5688L18.7363 17.76C18.7363 17.76 20.7409 17.03 21.5363 16.755C22.3358 16.4862 22.2288 17.4062 22.2288 17.4062L21.835 21.795L23.1432 21.245L25.2971 15.3237C25.2971 15.3237 26.4388 14.7987 27.2422 14.3375C28.0443 13.8763 28.3192 13.1112 28.3192 13.1112C28.3192 13.1112 27.5369 12.7925 26.6357 13.0487C25.7345 13.3025 24.5597 13.755 24.5597 13.755L18.4654 11.3062L17.1611 11.8538ZM9.30797 3.43375L11.8279 5.3325L12.5164 5.235L11.1447 3.53125C11.1447 3.53125 10.8461 3.17875 11.2478 3.095C11.6522 3.01 12.6749 2.8125 12.6749 2.8125L13.444 3.39375L13.962 3.32125L13.3753 2.43875L13.6845 1.46L13.1837 1.52875L12.5904 2.27375C12.5904 2.27375 11.5491 2.36625 11.1395 2.39875C10.7272 2.42875 10.9042 2.01 10.9042 2.01L11.6944 0L11.002 0.09625L9.17848 2.6075C9.17848 2.6075 8.57063 2.7125 8.1306 2.83125C7.68924 2.94875 7.45667 3.27125 7.45667 3.27125C7.45667 3.27125 7.78042 3.51875 8.23631 3.51C8.69616 3.50125 9.30797 3.43375 9.30797 3.43375ZM21.7623 27.8312L20.1317 27.025L19.7564 27.1488L20.7224 27.9662C20.7224 27.9662 20.9285 28.1325 20.7118 28.2212C20.4951 28.3088 19.9427 28.5238 19.9427 28.5238L19.4868 28.3313L19.2159 28.4237L19.5952 28.8062L19.5582 29.365L19.841 29.2725L20.0524 28.8188C20.0524 28.8188 20.6259 28.6575 20.8545 28.6C21.0818 28.5412 21.0302 28.7938 21.0302 28.7938L20.8148 30L21.1915 29.8762L21.9301 28.2812C21.9301 28.2812 22.2565 28.16 22.4904 28.0487C22.7243 27.9375 22.8168 27.7325 22.8168 27.7325C22.8168 27.7325 22.6093 27.625 22.353 27.6787C22.0953 27.73 21.7623 27.8312 21.7623 27.8312Z"></path>
  </symbol>
  <symbol xmlns="http://www.w3.org/2000/svg" viewBox="0 0 23 24" id="i-meta">
    <path d="M23 12.0699C23 5.71857 17.8513 0.569853 11.5 0.569853C5.14872 0.569853 0 5.71857 0 12.0699C0 17.8098 4.20538 22.5674 9.70312 23.4301V15.3941H6.7832V12.0699H9.70312V9.53626C9.70312 6.65407 11.42 5.06204 14.0468 5.06204C15.305 5.06204 16.6211 5.28665 16.6211 5.28665V8.11673H15.171C13.7424 8.11673 13.2969 9.00319 13.2969 9.91264V12.0699H16.4863L15.9765 15.3941H13.2969V23.4301C18.7946 22.5674 23 17.8098 23 12.0699Z"></path>
  </symbol>
  <symbol xmlns="http://www.w3.org/2000/svg" viewBox="0 0 15 26" id="i-next">
    <path d="M0.924346 1.0675C0.572838 1.41911 0.375371 1.89594 0.375371 2.39312C0.375371 2.89031 0.572838 3.36713 0.924346 3.71875L10.2056 13L0.924346 22.2812C0.5828 22.6349 0.39381 23.1085 0.398083 23.6001C0.402354 24.0917 0.599545 24.562 0.947186 24.9097C1.29483 25.2573 1.7651 25.4545 2.25672 25.4588C2.74834 25.463 3.22197 25.274 3.57559 24.9325L14.1825 14.3256C14.534 13.974 14.7314 13.4972 14.7314 13C14.7314 12.5028 14.534 12.026 14.1825 11.6744L3.57559 1.0675C3.22398 0.715991 2.74715 0.518524 2.24997 0.518524C1.75279 0.518524 1.27596 0.715991 0.924346 1.0675Z"></path>
  </symbol>
  <symbol xmlns="http://www.w3.org/2000/svg" viewBox="0 0 15 26" id="i-prew">
    <path d="M14.0757 24.9325C14.4272 24.5809 14.6246 24.1041 14.6246 23.6069C14.6246 23.1097 14.4272 22.6329 14.0757 22.2813L4.7944 13L14.0757 3.71875C14.4172 3.36512 14.6062 2.89149 14.6019 2.39987C14.5976 1.90825 14.4005 1.43798 14.0528 1.09034C13.7052 0.742699 13.2349 0.545507 12.7433 0.541237C12.2517 0.536964 11.778 0.725954 11.4244 1.0675L0.817529 11.6744C0.466021 12.026 0.268555 12.5028 0.268555 13C0.268555 13.4972 0.466021 13.974 0.817529 14.3256L11.4244 24.9325C11.776 25.284 12.2528 25.4815 12.75 25.4815C13.2472 25.4815 13.724 25.284 14.0757 24.9325Z"></path>
  </symbol>
  <symbol xmlns="http://www.w3.org/2000/svg" viewBox="0 0 50 45" id="i-step-1">
    <path d="M10.4167 41.7548C8.4828 41.7548 6.62813 40.957 5.26068 39.537C3.89323 38.1169 3.125 36.1909 3.125 34.1827C3.125 32.1744 3.89323 30.2484 5.26068 28.8284C6.62813 27.4084 8.4828 26.6106 10.4167 26.6106C12.3505 26.6106 14.2052 27.4084 15.5727 28.8284C16.9401 30.2484 17.7083 32.1744 17.7083 34.1827C17.7083 36.1909 16.9401 38.1169 15.5727 39.537C14.2052 40.957 12.3505 41.7548 10.4167 41.7548ZM10.4167 23.3654C7.65399 23.3654 5.00447 24.5051 3.05097 26.5337C1.09747 28.5623 0 31.3138 0 34.1827C0 37.0516 1.09747 39.803 3.05097 41.8317C5.00447 43.8603 7.65399 45 10.4167 45C13.1793 45 15.8289 43.8603 17.7824 41.8317C19.7359 39.803 20.8333 37.0516 20.8333 34.1827C20.8333 31.3138 19.7359 28.5623 17.7824 26.5337C15.8289 24.5051 13.1793 23.3654 10.4167 23.3654ZM30.8333 19.0385H39.5833V15.1442H32.9167L28.875 8.06971C28.2708 6.98798 27.0833 6.27404 25.8333 6.27404C24.8542 6.27404 23.9583 6.6851 23.3333 7.35577L15.625 15.3389C14.9792 16.0096 14.5833 16.875 14.5833 17.9567C14.5833 19.3197 15.2708 20.4663 16.3542 21.137L23.3333 25.5288V36.3462H27.0833V22.2837L22.3958 18.7139L27.2292 13.6298L30.8333 19.0385ZM39.5833 41.7548C37.6495 41.7548 35.7948 40.957 34.4273 39.537C33.0599 38.1169 32.2917 36.1909 32.2917 34.1827C32.2917 32.1744 33.0599 30.2484 34.4273 28.8284C35.7948 27.4084 37.6495 26.6106 39.5833 26.6106C41.5172 26.6106 43.3719 27.4084 44.7393 28.8284C46.1068 30.2484 46.875 32.1744 46.875 34.1827C46.875 36.1909 46.1068 38.1169 44.7393 39.537C43.3719 40.957 41.5172 41.7548 39.5833 41.7548ZM39.5833 23.3654C36.8207 23.3654 34.1711 24.5051 32.2176 26.5337C30.2641 28.5623 29.1667 31.3138 29.1667 34.1827C29.1667 37.0516 30.2641 39.803 32.2176 41.8317C34.1711 43.8603 36.8207 45 39.5833 45C40.9513 45 42.3058 44.7202 43.5696 44.1766C44.8334 43.633 45.9818 42.8362 46.949 41.8317C47.9163 40.8272 48.6836 39.6347 49.2071 38.3223C49.7306 37.0099 50 35.6032 50 34.1827C50 32.7621 49.7306 31.3555 49.2071 30.0431C48.6836 28.7307 47.9163 27.5382 46.949 26.5337C45.9818 25.5292 44.8334 24.7324 43.5696 24.1888C42.3058 23.6452 40.9513 23.3654 39.5833 23.3654ZM33.3333 7.78846C35.4167 7.78846 37.0833 6.05769 37.0833 3.89423C37.0833 1.73077 35.4167 0 33.3333 0C31.25 0 29.5833 1.73077 29.5833 3.89423C29.5833 6.05769 31.25 7.78846 33.3333 7.78846Z"></path>
  </symbol>
  <symbol xmlns="http://www.w3.org/2000/svg" viewBox="0 0 35 32" id="i-step-1-mb">
    <path d="M7.29167 29.2284C5.93796 29.2284 4.63969 28.6699 3.68248 27.6759C2.72526 26.6819 2.1875 25.3337 2.1875 23.9279C2.1875 22.5221 2.72526 21.1739 3.68248 20.1799C4.63969 19.1859 5.93796 18.6274 7.29167 18.6274C8.64538 18.6274 9.94364 19.1859 10.9009 20.1799C11.8581 21.1739 12.3958 22.5221 12.3958 23.9279C12.3958 25.3337 11.8581 26.6819 10.9009 27.6759C9.94364 28.6699 8.64538 29.2284 7.29167 29.2284ZM7.29167 16.3558C5.3578 16.3558 3.50313 17.1535 2.13568 18.5736C0.768227 19.9936 0 21.9196 0 23.9279C0 25.9361 0.768227 27.8621 2.13568 29.2822C3.50313 30.7022 5.3578 31.5 7.29167 31.5C9.22554 31.5 11.0802 30.7022 12.4477 29.2822C13.8151 27.8621 14.5833 25.9361 14.5833 23.9279C14.5833 21.9196 13.8151 19.9936 12.4477 18.5736C11.0802 17.1535 9.22554 16.3558 7.29167 16.3558ZM21.5833 13.3269H27.7083V10.601H23.0417L20.2125 5.6488C19.7896 4.89159 18.9583 4.39183 18.0833 4.39183C17.3979 4.39183 16.7708 4.67957 16.3333 5.14904L10.9375 10.7373C10.4854 11.2067 10.2083 11.8125 10.2083 12.5697C10.2083 13.5238 10.6896 14.3264 11.4479 14.7959L16.3333 17.8702V25.4423H18.9583V15.5986L15.6771 13.0998L19.0604 9.54087L21.5833 13.3269ZM27.7083 29.2284C26.3546 29.2284 25.0564 28.6699 24.0991 27.6759C23.1419 26.6819 22.6042 25.3337 22.6042 23.9279C22.6042 22.5221 23.1419 21.1739 24.0991 20.1799C25.0564 19.1859 26.3546 18.6274 27.7083 18.6274C29.062 18.6274 30.3603 19.1859 31.3175 20.1799C32.2747 21.1739 32.8125 22.5221 32.8125 23.9279C32.8125 25.3337 32.2747 26.6819 31.3175 27.6759C30.3603 28.6699 29.062 29.2284 27.7083 29.2284ZM27.7083 16.3558C25.7745 16.3558 23.9198 17.1535 22.5523 18.5736C21.1849 19.9936 20.4167 21.9196 20.4167 23.9279C20.4167 25.9361 21.1849 27.8621 22.5523 29.2822C23.9198 30.7022 25.7745 31.5 27.7083 31.5C28.6659 31.5 29.6141 31.3041 30.4987 30.9236C31.3834 30.5431 32.1872 29.9853 32.8643 29.2822C33.5414 28.579 34.0785 27.7443 34.445 26.8256C34.8114 25.9069 35 24.9223 35 23.9279C35 22.9335 34.8114 21.9489 34.445 21.0302C34.0785 20.1115 33.5414 19.2767 32.8643 18.5736C32.1872 17.8705 31.3834 17.3127 30.4987 16.9322C29.6141 16.5516 28.6659 16.3558 27.7083 16.3558ZM23.3333 5.45192C24.7917 5.45192 25.9583 4.24039 25.9583 2.72596C25.9583 1.21154 24.7917 0 23.3333 0C21.875 0 20.7083 1.21154 20.7083 2.72596C20.7083 4.24039 21.875 5.45192 23.3333 5.45192Z" fill="white"></path>
  </symbol>
  <symbol xmlns="http://www.w3.org/2000/svg" viewBox="0 0 52 52" id="i-step-2">
    <path d="M13.7222 28.8889C14.6799 28.8889 15.5984 28.5084 16.2757 27.8312C16.9529 27.154 17.3333 26.2355 17.3333 25.2778C17.3333 24.3201 16.9529 23.4016 16.2757 22.7243C15.5984 22.0471 14.6799 21.6667 13.7222 21.6667C12.7645 21.6667 11.846 22.0471 11.1688 22.7243C10.4916 23.4016 10.1111 24.3201 10.1111 25.2778C10.1111 26.2355 10.4916 27.154 11.1688 27.8312C11.846 28.5084 12.7645 28.8889 13.7222 28.8889ZM29.6111 25.2778C29.6111 26.2355 29.2307 27.154 28.5534 27.8312C27.8762 28.5084 26.9577 28.8889 26 28.8889C25.0423 28.8889 24.1238 28.5084 23.4466 27.8312C22.7693 27.154 22.3889 26.2355 22.3889 25.2778C22.3889 24.3201 22.7693 23.4016 23.4466 22.7243C24.1238 22.0471 25.0423 21.6667 26 21.6667C26.9577 21.6667 27.8762 22.0471 28.5534 22.7243C29.2307 23.4016 29.6111 24.3201 29.6111 25.2778ZM38.2778 28.8889C39.2355 28.8889 40.154 28.5084 40.8312 27.8312C41.5084 27.154 41.8889 26.2355 41.8889 25.2778C41.8889 24.3201 41.5084 23.4016 40.8312 22.7243C40.154 22.0471 39.2355 21.6667 38.2778 21.6667C37.32 21.6667 36.4016 22.0471 35.7243 22.7243C35.0471 23.4016 34.6667 24.3201 34.6667 25.2778C34.6667 26.2355 35.0471 27.154 35.7243 27.8312C36.4016 28.5084 37.32 28.8889 38.2778 28.8889ZM17.3333 36.8333C17.3333 37.7911 16.9529 38.7096 16.2757 39.3868C15.5984 40.064 14.6799 40.4444 13.7222 40.4444C12.7645 40.4444 11.846 40.064 11.1688 39.3868C10.4916 38.7096 10.1111 37.7911 10.1111 36.8333C10.1111 35.8756 10.4916 34.9571 11.1688 34.2799C11.846 33.6027 12.7645 33.2222 13.7222 33.2222C14.6799 33.2222 15.5984 33.6027 16.2757 34.2799C16.9529 34.9571 17.3333 35.8756 17.3333 36.8333ZM26 40.4444C26.9577 40.4444 27.8762 40.064 28.5534 39.3868C29.2307 38.7096 29.6111 37.7911 29.6111 36.8333C29.6111 35.8756 29.2307 34.9571 28.5534 34.2799C27.8762 33.6027 26.9577 33.2222 26 33.2222C25.0423 33.2222 24.1238 33.6027 23.4466 34.2799C22.7693 34.9571 22.3889 35.8756 22.3889 36.8333C22.3889 37.7911 22.7693 38.7096 23.4466 39.3868C24.1238 40.064 25.0423 40.4444 26 40.4444ZM0 9.02778C0 6.63346 0.951138 4.33721 2.64417 2.64417C4.33721 0.951138 6.63346 0 9.02778 0H42.9722C45.3665 0 47.6628 0.951138 49.3558 2.64417C51.0489 4.33721 52 6.63346 52 9.02778V42.9722C52 45.3665 51.0489 47.6628 49.3558 49.3558C47.6628 51.0489 45.3665 52 42.9722 52H9.02778C6.63346 52 4.33721 51.0489 2.64417 49.3558C0.951138 47.6628 0 45.3665 0 42.9722V9.02778ZM9.02778 3.61111C7.59119 3.61111 6.21344 4.18179 5.19762 5.19762C4.18179 6.21344 3.61111 7.59119 3.61111 9.02778V11.5556H48.3889V9.02778C48.3889 7.59119 47.8182 6.21344 46.8024 5.19762C45.7866 4.18179 44.4088 3.61111 42.9722 3.61111H9.02778ZM3.61111 42.9722C3.61111 44.4088 4.18179 45.7866 5.19762 46.8024C6.21344 47.8182 7.59119 48.3889 9.02778 48.3889H42.9722C44.4088 48.3889 45.7866 47.8182 46.8024 46.8024C47.8182 45.7866 48.3889 44.4088 48.3889 42.9722V15.1667H3.61111V42.9722Z"></path>
  </symbol>
  <symbol xmlns="http://www.w3.org/2000/svg" viewBox="0 0 35 35" id="i-step-2-mb">
    <path d="M9.23611 19.4444C9.88073 19.4444 10.499 19.1884 10.9548 18.7326C11.4106 18.2767 11.6667 17.6585 11.6667 17.0139C11.6667 16.3693 11.4106 15.751 10.9548 15.2952C10.499 14.8394 9.88073 14.5833 9.23611 14.5833C8.59149 14.5833 7.97327 14.8394 7.51745 15.2952C7.06163 15.751 6.80556 16.3693 6.80556 17.0139C6.80556 17.6585 7.06163 18.2767 7.51745 18.7326C7.97327 19.1884 8.59149 19.4444 9.23611 19.4444ZM19.9306 17.0139C19.9306 17.6585 19.6745 18.2767 19.2187 18.7326C18.7628 19.1884 18.1446 19.4444 17.5 19.4444C16.8554 19.4444 16.2372 19.1884 15.7813 18.7326C15.3255 18.2767 15.0694 17.6585 15.0694 17.0139C15.0694 16.3693 15.3255 15.751 15.7813 15.2952C16.2372 14.8394 16.8554 14.5833 17.5 14.5833C18.1446 14.5833 18.7628 14.8394 19.2187 15.2952C19.6745 15.751 19.9306 16.3693 19.9306 17.0139ZM25.7639 19.4444C26.4085 19.4444 27.0267 19.1884 27.4826 18.7326C27.9384 18.2767 28.1944 17.6585 28.1944 17.0139C28.1944 16.3693 27.9384 15.751 27.4826 15.2952C27.0267 14.8394 26.4085 14.5833 25.7639 14.5833C25.1193 14.5833 24.501 14.8394 24.0452 15.2952C23.5894 15.751 23.3333 16.3693 23.3333 17.0139C23.3333 17.6585 23.5894 18.2767 24.0452 18.7326C24.501 19.1884 25.1193 19.4444 25.7639 19.4444ZM11.6667 24.7917C11.6667 25.4363 11.4106 26.0545 10.9548 26.5103C10.499 26.9661 9.88073 27.2222 9.23611 27.2222C8.59149 27.2222 7.97327 26.9661 7.51745 26.5103C7.06163 26.0545 6.80556 25.4363 6.80556 24.7917C6.80556 24.147 7.06163 23.5288 7.51745 23.073C7.97327 22.6172 8.59149 22.3611 9.23611 22.3611C9.88073 22.3611 10.499 22.6172 10.9548 23.073C11.4106 23.5288 11.6667 24.147 11.6667 24.7917ZM17.5 27.2222C18.1446 27.2222 18.7628 26.9661 19.2187 26.5103C19.6745 26.0545 19.9306 25.4363 19.9306 24.7917C19.9306 24.147 19.6745 23.5288 19.2187 23.073C18.7628 22.6172 18.1446 22.3611 17.5 22.3611C16.8554 22.3611 16.2372 22.6172 15.7813 23.073C15.3255 23.5288 15.0694 24.147 15.0694 24.7917C15.0694 25.4363 15.3255 26.0545 15.7813 26.5103C16.2372 26.9661 16.8554 27.2222 17.5 27.2222ZM0 6.07639C0 4.46483 0.640189 2.91928 1.77973 1.77973C2.91928 0.640189 4.46483 0 6.07639 0H28.9236C30.5352 0 32.0807 0.640189 33.2203 1.77973C34.3598 2.91928 35 4.46483 35 6.07639V28.9236C35 30.5352 34.3598 32.0807 33.2203 33.2203C32.0807 34.3598 30.5352 35 28.9236 35H6.07639C4.46483 35 2.91928 34.3598 1.77973 33.2203C0.640189 32.0807 0 30.5352 0 28.9236V6.07639ZM6.07639 2.43056C5.10945 2.43056 4.18212 2.81467 3.4984 3.4984C2.81467 4.18212 2.43056 5.10945 2.43056 6.07639V7.77778H32.5694V6.07639C32.5694 5.10945 32.1853 4.18212 31.5016 3.4984C30.8179 2.81467 29.8905 2.43056 28.9236 2.43056H6.07639ZM2.43056 28.9236C2.43056 29.8905 2.81467 30.8179 3.4984 31.5016C4.18212 32.1853 5.10945 32.5694 6.07639 32.5694H28.9236C29.8905 32.5694 30.8179 32.1853 31.5016 31.5016C32.1853 30.8179 32.5694 29.8905 32.5694 28.9236V10.2083H2.43056V28.9236Z"></path>
  </symbol>
  <symbol xmlns="http://www.w3.org/2000/svg" viewBox="0 0 60 45" id="i-step-3">
    <path d="M53.9305 42.9545C53.9305 43.497 53.7174 44.0173 53.3379 44.4009C52.9585 44.7845 52.4439 45 51.9074 45H15.4904C14.9539 45 14.4393 44.7845 14.0598 44.4009C13.6804 44.0173 13.4673 43.497 13.4673 42.9545C13.4673 42.4121 13.6804 41.8918 14.0598 41.5082C14.4393 41.1246 14.9539 40.9091 15.4904 40.9091H51.9074C52.4439 40.9091 52.9585 41.1246 53.3379 41.5082C53.7174 41.8918 53.9305 42.4121 53.9305 42.9545ZM60 22.5V28.6364C60 29.1789 59.7868 29.6991 59.4074 30.0827C59.028 30.4663 58.5134 30.6818 57.9768 30.6818H13.4167C11.24 30.6894 9.11942 29.9834 7.37311 28.6696C5.6268 27.3558 4.34881 25.5051 3.7308 23.3949L0.164977 11.4034C-0.0121092 10.7898 -0.0471935 10.1431 0.0624379 9.51357C0.172069 8.88401 0.423478 8.28837 0.797215 7.77275C1.17939 7.26416 1.67273 6.85181 2.23866 6.56794C2.8046 6.28407 3.4278 6.13637 4.05956 6.13639H8.40936C8.70472 6.13701 8.99627 6.20383 9.26302 6.33204C9.52977 6.46025 9.76509 6.64667 9.95202 6.87786L14.403 12.2727H18.7528L16.4767 5.39491C16.2718 4.77893 16.215 4.12246 16.3111 3.47987C16.4071 2.83728 16.6531 2.22707 17.0288 1.69976C17.4046 1.17246 17.8991 0.743236 18.4716 0.447651C19.0441 0.152067 19.6779 -0.00137704 20.3207 2.79722e-05H24.5947C24.8756 -0.00146688 25.1537 0.0569681 25.4108 0.171517C25.6679 0.286065 25.8983 0.454151 26.0867 0.6648L36.6072 12.2727H49.8842C52.5671 12.2727 55.1401 13.3503 57.0372 15.2682C58.9342 17.1862 60 19.7876 60 22.5ZM55.9537 22.5C55.947 20.8746 55.3054 19.3177 54.1686 18.1684C53.0318 17.0191 51.4919 16.3704 49.8842 16.3637H35.7221C35.4411 16.3651 35.163 16.3067 34.9059 16.1922C34.6488 16.0776 34.4185 15.9095 34.23 15.6989L23.7095 4.09093H20.3207L23.4819 13.679C23.5809 13.9865 23.6073 14.3132 23.559 14.6328C23.5107 14.9525 23.389 15.2563 23.2037 15.5199C23.0169 15.7837 22.77 15.9981 22.4838 16.1449C22.1977 16.2918 21.8808 16.3668 21.5599 16.3637H13.4673C13.1719 16.363 12.8804 16.2962 12.6136 16.168C12.3469 16.0398 12.1115 15.8534 11.9246 15.6222L7.47365 10.2273H4.03428L7.6001 22.2188C7.97187 23.4853 8.73962 24.5959 9.78826 25.3841C10.8369 26.1723 12.11 26.5958 13.4167 26.5909H55.9537V22.5Z"></path>
  </symbol>
  <symbol xmlns="http://www.w3.org/2000/svg" viewBox="0 0 40 30" id="i-step-3-mb">
    <path d="M35.9537 28.6364C35.9537 28.998 35.8116 29.3449 35.5586 29.6006C35.3057 29.8563 34.9626 30 34.6049 30H10.327C9.96924 30 9.62617 29.8563 9.37323 29.6006C9.12028 29.3449 8.97818 28.998 8.97818 28.6364C8.97818 28.2747 9.12028 27.9279 9.37323 27.6721C9.62617 27.4164 9.96924 27.2727 10.327 27.2727H34.6049C34.9626 27.2727 35.3057 27.4164 35.5586 27.6721C35.8116 27.9279 35.9537 28.2747 35.9537 28.6364ZM40 15V19.0909C40 19.4526 39.8579 19.7994 39.605 20.0552C39.352 20.3109 39.0089 20.4546 38.6512 20.4546H8.94446C7.4933 20.4596 6.07962 19.9889 4.91541 19.1131C3.7512 18.2372 2.89921 17.0034 2.4872 15.5966L0.109984 7.60229C-0.00807283 7.19318 -0.0314623 6.76209 0.0416252 6.34238C0.114713 5.92267 0.282318 5.52558 0.531477 5.18183C0.78626 4.84277 1.11515 4.56787 1.49244 4.37863C1.86973 4.18938 2.2852 4.09091 2.70638 4.09093H5.60624C5.80315 4.09134 5.99752 4.13589 6.17535 4.22136C6.35318 4.30684 6.51006 4.43111 6.63468 4.58524L9.60199 8.18183H12.5019L10.9845 3.59661C10.8479 3.18595 10.81 2.74831 10.874 2.31991C10.938 1.89152 11.1021 1.48471 11.3526 1.13317C11.603 0.781637 11.9328 0.495491 12.3144 0.298434C12.696 0.101378 13.1186 -0.000918029 13.5472 1.86481e-05H16.3964C16.5837 -0.000977917 16.7692 0.0379787 16.9406 0.114344C17.112 0.19071 17.2655 0.302767 17.3912 0.4432L24.4048 8.18183H33.2561C35.0447 8.18183 36.76 8.90017 38.0248 10.1788C39.2895 11.4575 40 13.1917 40 15ZM37.3024 15C37.298 13.9164 36.8703 12.8785 36.1124 12.1123C35.3545 11.346 34.3279 10.9136 33.2561 10.9091H23.8147C23.6274 10.9101 23.442 10.8711 23.2706 10.7948C23.0992 10.7184 22.9456 10.6064 22.82 10.4659L15.8064 2.72729H13.5472L15.6546 9.11933C15.7206 9.32433 15.7382 9.54211 15.706 9.75523C15.6738 9.96835 15.5927 10.1709 15.4692 10.3466C15.3446 10.5224 15.18 10.6654 14.9892 10.7633C14.7985 10.8612 14.5872 10.9112 14.3733 10.9091H8.97818C8.78127 10.9087 8.58691 10.8641 8.40907 10.7787C8.23124 10.6932 8.07436 10.5689 7.94974 10.4148L4.98243 6.8182H2.68952L5.06673 14.8125C5.31458 15.6569 5.82641 16.3972 6.52551 16.9227C7.22461 17.4482 8.07332 17.7305 8.94446 17.7273H37.3024V15Z"></path>
  </symbol>
  <symbol xmlns="http://www.w3.org/2000/svg" viewBox="0 0 33 27" id="i-twitter">
    <path d="M32.4612 3.92278C31.2903 4.44162 30.0325 4.79218 28.7102 4.95063C30.0746 4.13423 31.0953 2.84932 31.582 1.33564C30.3001 2.09704 28.8972 2.63299 27.4341 2.92018C26.4503 1.86971 25.1472 1.17344 23.7271 0.939468C22.3069 0.7055 20.8493 0.946924 19.5805 1.62626C18.3116 2.30559 17.3026 3.38483 16.71 4.69641C16.1173 6.00799 15.9743 7.47853 16.3031 8.87973C13.7057 8.74931 11.1647 8.07421 8.84514 6.89822C6.52554 5.72223 4.47913 4.07165 2.83872 2.05359C2.27782 3.02114 1.9553 4.14294 1.9553 5.33765C1.95468 6.41317 2.21953 7.47221 2.72637 8.42082C3.23321 9.36942 3.96635 10.1783 4.86076 10.7756C3.82348 10.7426 2.80909 10.4623 1.90202 9.95806V10.0422C1.90191 11.5506 2.4237 13.0127 3.37884 14.1802C4.33398 15.3478 5.66365 16.1489 7.14222 16.4477C6.17997 16.7081 5.17113 16.7464 4.19189 16.5598C4.60905 17.8578 5.42165 18.9928 6.51593 19.8059C7.6102 20.6191 8.93137 21.0697 10.2945 21.0947C7.98053 22.9112 5.12282 23.8965 2.18106 23.8922C1.65996 23.8923 1.1393 23.8619 0.621765 23.801C3.60782 25.721 7.0838 26.7399 10.6338 26.7359C22.6511 26.7359 29.2206 16.7828 29.2206 8.15056C29.2206 7.87011 29.2136 7.58686 29.201 7.30641C30.4788 6.38229 31.5819 5.23795 32.4584 3.92699L32.4612 3.92278Z"></path>
  </symbol>
  <symbol xmlns="http://www.w3.org/2000/svg" viewBox="0 0 33 28" id="i-youtube">
    <path d="M24.8944 2.60889H8.06742C4.96967 2.60889 2.45844 5.12012 2.45844 8.21788V19.4359C2.45844 22.5336 4.96967 25.0449 8.06742 25.0449H24.8944C27.9922 25.0449 30.5034 22.5336 30.5034 19.4359V8.21788C30.5034 5.12012 27.9922 2.60889 24.8944 2.60889Z" stroke="#F8F8F8" stroke-width="4.16667" stroke-linecap="round" stroke-linejoin="round"></path>
    <path d="M20.6877 13.8269L13.6764 9.62012V18.0336L20.6877 13.8269Z" stroke="#F8F8F8" stroke-width="4.16667" stroke-linecap="round" stroke-linejoin="round"></path>
  </symbol>
</svg>